<?xml version="1.0" encoding="UTF-8" standalone="no"?>
<!-- Created with Inkscape (http://www.inkscape.org/) -->

<svg
   xmlns:dc="http://purl.org/dc/elements/1.1/"
   xmlns:cc="http://creativecommons.org/ns#"
   xmlns:rdf="http://www.w3.org/1999/02/22-rdf-syntax-ns#"
   xmlns:svg="http://www.w3.org/2000/svg"
   xmlns="http://www.w3.org/2000/svg"
   xmlns:xlink="http://www.w3.org/1999/xlink"
   xmlns:sodipodi="http://sodipodi.sourceforge.net/DTD/sodipodi-0.dtd"
   xmlns:inkscape="http://www.inkscape.org/namespaces/inkscape"
   id="svg3720"
   version="1.1"
   inkscape:version="0.91 r13725"
   width="726.25"
   height="480"
   viewBox="0 0 726.25 480"
   sodipodi:docname="developingwoot.svg">
  <path
     d="m 163.17365,457.35956 c -31.18735,-4.54364 -52.46763,-21.39054 -60.40425,-47.82005 -1.55657,-5.1835 -2.06711,-17.20947 -2.66032,-62.66451 -0.721536,-55.28877 -0.783235,-56.3568 -3.61061,-62.5 C 89.696822,269.59667 76.885509,262.32317 54.001914,260.248 L 44.375,259.375 44.024856,244.92166 43.674714,230.46831 56.092818,229.01134 c 21.92732,-2.57267 33.091378,-8.88368 39.768496,-22.48103 L 99.375,199.375 100.04503,142.5 c 0.65039,-55.207684 0.75402,-57.113188 3.53475,-65 7.57197,-21.475898 22.88816,-34.859555 47.49081,-41.498635 8.16737,-2.203984 14.40861,-2.666301 42.99191,-3.184615 l 33.4375,-0.606338 0,12.473208 0,12.473209 -14.97896,0.616906 c -18.95689,0.780736 -24.84948,3.31898 -30.84065,13.284678 C 175.64112,81.10407 175,87.994372 175,142.85336 c 0,53.17033 -0.44569,58.09973 -6.29703,69.64664 -6.20487,12.24456 -16.70441,20.18864 -34.65582,26.221 -13.77847,4.63009 -14.32037,6.68381 -2.79715,10.60086 16.6496,5.65964 30.01984,14.881 36.13206,24.92004 6.73745,11.06596 6.85798,12.2435 7.62611,74.5081 0.69257,56.13761 0.81143,58.36226 3.47642,65.06435 3.14797,7.9167 8.73426,13.9096 15.65771,16.79741 2.85772,1.19198 10.49332,2.29534 19.0625,2.75458 l 14.2952,0.7661 0,12.30877 0,12.30879 -28.4375,-0.15243 c -15.64063,-0.0839 -31.79061,-0.64093 -35.88885,-1.23801 z M 507.5,446.57578 l 0,-12.44334 14.2952,-0.7661 c 8.56917,-0.45924 16.20477,-1.5626 19.0625,-2.75458 6.92345,-2.88781 12.50974,-8.88071 15.65771,-16.79741 2.66499,-6.70209 2.78385,-8.92674 3.47641,-65.06435 0.64063,-51.92872 0.95932,-58.79126 2.98949,-64.375 6.10598,-16.79369 18.56404,-27.5052 40.76869,-35.05314 11.52321,-3.91705 10.98132,-5.97077 -2.79715,-10.60086 C 583.00144,232.68864 572.5019,224.74456 566.29702,212.5 560.44569,200.95309 560,196.02369 560,142.85336 560,87.994372 559.35887,81.10407 553.31961,71.058413 547.32844,61.092715 541.43585,58.554471 522.47896,57.773735 L 507.5,57.156829 l 0,-12.473209 0,-12.473208 33.4375,0.606338 c 28.5833,0.518314 34.82454,0.980631 42.99191,3.184615 24.60265,6.63908 39.91884,20.022737 47.49081,41.498635 2.78073,7.886812 2.88435,9.792316 3.53474,65 l 0.67004,56.875 3.51369,7.15531 c 6.67711,13.59735 17.84117,19.90837 39.7685,22.48103 l 12.4181,1.45697 -0.35015,14.45335 -0.35014,14.45334 -9.62691,0.873 c -22.8836,2.07517 -35.69492,9.34867 -42.49657,24.127 -2.82737,6.1432 -2.88907,7.21123 -3.61061,62.5 -0.5932,45.45504 -1.10374,57.48101 -2.66031,62.66451 -6.92759,23.06936 -23.94774,38.77494 -49.55119,45.72403 -8.18026,2.22022 -14.27361,2.67677 -42.36691,3.17437 l -32.8125,0.58119 0,-12.44332 z M 360.625,406.02877 c -43.11818,-21.68666 -66.4286,-36.51316 -101.875,-64.79715 -8.70878,-6.94905 -12.39581,-11.08561 -20.44371,-22.93621 l -9.81872,-14.45814 2.94372,-3.72447 c 1.61903,-2.04846 3.39027,-3.7556 3.93607,-3.79364 0.5458,-0.038 11.7958,5.45714 25,12.2115 30.14793,15.42163 59.80933,26.08461 89.63264,32.22205 5.84375,1.2026 10.7974,2.307 11.00813,2.4542 0.21071,0.14722 2.04578,7.49725 4.07795,16.33343 2.03215,8.83617 5.78081,22.40377 8.33035,30.1502 l 4.63552,14.08442 -3.71347,3.6417 -3.71348,3.6417 -10,-5.02958 z m 171.36501,-59.35218 c -3.99696,-6.30294 -11.43224,-11.60292 -21.63062,-15.41861 -5.87957,-2.19983 -53.67632,-11.29584 -79.10939,-15.055 -25.96569,-3.83789 -43.11931,-9.75179 -52.27321,-18.0218 -5.78855,-5.2296 -12.05483,-16.75452 -13.38253,-24.61309 l -0.8858,-5.243 -4.0115,8.64995 c -4.5133,9.73201 -10.71505,15.96832 -17.8503,17.9498 -7.87582,2.18714 -24.15085,1.49621 -43.68482,-1.85458 -60.30202,-10.34396 -70.25692,-11.81816 -79.63385,-11.79281 -7.26188,0.0196 -11.64379,0.70429 -15.38837,2.40436 -5.69251,2.58444 -12.62797,10.9648 -13.76331,16.63069 -0.37885,1.89062 -1.24231,3.4375 -1.9188,3.4375 -0.77374,0 -1.0439,-6.83923 -0.72831,-18.4375 0.52309,-19.22407 1.16279,-21.78341 7.63162,-30.53315 3.854,-5.2129 12.19289,-10.61174 19.81144,-12.82651 8.44538,-2.45514 17.06285,-1.66703 54.2281,4.95943 47.62813,8.49197 53.39895,9.33759 63.53635,9.31028 13.36984,-0.036 19.4141,-2.67944 24.51389,-10.72096 2.05257,-3.23658 4.3959,-7.89647 5.20739,-10.3553 l 1.47543,-4.47063 2.07223,7.57016 c 2.51359,9.18255 6.03216,15.0971 12.40811,20.85739 8.83971,7.98615 14.76825,9.49885 84.51124,21.56343 18.5625,3.21106 37.125,6.93776 41.25,8.28157 14.95686,4.87253 25.38036,14.60606 32.77365,30.60424 2.8055,6.07079 3.46954,9.5128 3.88444,20.13505 0.49947,12.78734 0.49466,12.81241 -2.45382,12.76686 -2.12333,-0.0329 -3.97667,-1.6579 -6.58926,-5.77777 z M 428.125,219.56557 c -12.95414,-3.36916 -23.38406,-11.46235 -27.63107,-21.44057 -3.00879,-7.06902 -2.72409,-18.67364 0.64496,-26.28994 3.33753,-7.54505 5.65536,-10.1719 11.6953,-13.25453 21.24525,-10.84308 50.34532,0.54774 56.63025,22.16712 3.51239,12.08217 0.58662,25.39274 -7.17235,32.63019 -6.90289,6.43891 -22.40612,9.24658 -34.16709,6.18773 z M 274.6824,191.21534 c -13.49464,-3.38874 -24.49548,-12.95281 -27.83556,-24.20011 -2.49869,-8.41398 -2.32291,-14.39903 0.65676,-22.36293 4.41267,-11.79392 12.7489,-17.2557 27.69004,-18.14209 17.59226,-1.04367 32.02986,6.37184 39.02116,20.04224 6.03643,11.80329 4.5246,28.56159 -3.33696,36.98964 -6.84138,7.33435 -23.49005,10.86379 -36.19544,7.67325 z"
     id="path3730"
     inkscape:connector-curvature="0" />
</svg>
