<?xml version="1.0" encoding="UTF-8" standalone="no"?>
<!-- Created with Inkscape (http://www.inkscape.org/) -->

<svg
   xmlns:dc="http://purl.org/dc/elements/1.1/"
   xmlns:cc="http://creativecommons.org/ns#"
   xmlns:rdf="http://www.w3.org/1999/02/22-rdf-syntax-ns#"
   xmlns:svg="http://www.w3.org/2000/svg"
   xmlns="http://www.w3.org/2000/svg"
   xmlns:xlink="http://www.w3.org/1999/xlink"
   xmlns:sodipodi="http://sodipodi.sourceforge.net/DTD/sodipodi-0.dtd"
   xmlns:inkscape="http://www.inkscape.org/namespaces/inkscape"
   id="svg3587"
   version="1.1"
   inkscape:version="0.91 r13725"
   width="726.25"
   height="480"
   viewBox="0 0 726.25 480"
   sodipodi:docname="developingwoot.svg">
  <path
     d="M 154.24846,456.92956 C 141.44945,454.94132 127.10878,450.6567 120.5531,446.86225 113.84561,442.97994 105.36629,433.64586 102.34755,426.8215 101.01123,423.80052 98.731734,416.95171 97.282,411.60191 94.892704,402.78494 94.555325,397.02215 93.675561,350 92.615479,293.34005 91.826491,286.30031 85.217376,274.53186 80.823148,266.70732 73.296478,260.70753 64.632339,258.12275 57.388244,255.96161 39.447005,253.80484 28.4375,253.77166 L 21.25,253.75 l 0,-16.875 0,-16.875 7.8125,-0.0216 c 13.1697,-0.0365 30.386349,-2.30712 37.397494,-4.93215 13.029382,-4.87829 20.091299,-13.70046 24.282191,-30.33473 1.549209,-6.14909 2.181765,-19.14118 2.937649,-60.33649 0.875065,-47.690619 1.204914,-53.391056 3.600678,-62.22691 3.711078,-13.686885 6.692038,-19.839297 12.848698,-26.518486 6.96605,-7.557273 13.11457,-11.04021 26.12079,-14.796601 14.24515,-4.114212 29.37946,-5.825245 51.5625,-5.829482 L 206.25,15 l 0,16.688809 0,16.688807 -17.1875,0.851008 c -27.77781,1.375366 -38.62605,4.961617 -43.96541,14.534243 -5.9422,10.653438 -6.50299,16.031931 -7.55792,72.487133 -0.82323,44.05602 -1.35442,54.38906 -3.11163,60.52971 -5.1509,18.00001 -12.2094,26.95358 -27.14007,34.42661 -5.54233,2.77403 -11.277449,5.06304 -12.744714,5.0867 -1.467266,0.0236 1.377751,1.63932 6.322264,3.59034 19.07121,7.52516 28.59485,18.24045 33.67609,37.88979 1.62613,6.28826 2.21398,18.18201 2.95196,59.72685 0.94958,53.4549 1.58621,60.30637 6.60135,71.04399 4.93683,10.56993 16.07468,14.52665 44.96808,15.97485 l 17.1875,0.86147 0,16.68485 0,16.68484 -20.9375,-0.12363 c -11.51563,-0.068 -25.49444,-0.83156 -31.06404,-1.69676 z M 520,441.875 520,425 l 9.0625,-0.0322 c 15.22148,-0.0541 32.71137,-2.23116 40.08281,-4.98917 16.948,-6.34105 19.50469,-17.67698 19.58886,-86.85358 0.0414,-34.05029 0.39585,-41.68214 2.38277,-51.30908 4.67925,-22.67163 13.72238,-33.53517 35.13306,-42.20534 4.46875,-1.80962 7.10376,-3.30603 5.85557,-3.32539 -4.17736,-0.0648 -20.41303,-8.39189 -25.73311,-13.19826 -6.77999,-6.1253 -10.54939,-12.695 -13.96347,-24.33693 -2.55807,-8.72286 -2.81675,-13.07041 -3.719,-62.5 -1.02637,-56.228752 -1.83114,-64.049695 -7.5415,-73.289256 -5.50565,-8.908333 -16.76223,-12.492696 -43.14824,-13.739436 L 520,48.370796 520,31.685397 520,15 l 19.52707,0 c 31.54457,0 55.04978,4.655115 69.13125,13.691171 6.43587,4.12988 13.63557,13.488719 16.87358,21.933829 5.47849,14.288514 5.98504,19.627599 6.93773,73.125 1.01472,56.9805 1.78053,63.5892 8.79112,75.86427 4.45794,7.80555 9.87505,12.15613 19.23044,15.44428 7.42312,2.60902 24.96854,4.8838 37.94631,4.91979 L 706.25,220 l 0,16.875 0,16.875 -7.8125,0.0223 c -31.60871,0.0899 -49.80327,6.72079 -57.55734,20.97657 -6.47545,11.90507 -7.24811,18.87766 -8.33896,75.25122 -1.03348,53.40901 -1.56135,58.91613 -7.0093,73.125 -3.1416,8.19365 -10.05351,17.22997 -16.53445,21.61637 -13.55703,9.17556 -37.52452,14.00859 -69.47038,14.00859 l -19.52707,0 0,-16.875 z m -56.62867,-59.98458 -14.54948,-18.10956 6.52657,-4.13637 c 3.58962,-2.27502 11.75835,-7.43572 18.15274,-11.46824 l 11.62615,-7.33186 6.27671,6.1403 c 3.45219,3.37717 10.24856,11.33605 15.10303,17.68638 10.1059,13.21996 10.20494,12.21733 -2.06635,20.92094 C 498.27591,389.96449 480.11468,400 478.36661,400 c -0.24519,0 -6.99306,-8.14931 -14.99529,-18.10958 z m -75.21186,-14.50258 c -50.70747,-9.62178 -68.78756,-20.023 -105.60618,-60.75378 -12.38154,-13.69711 -12.05873,-12.77905 -7.95044,-22.61159 l 1.80514,-4.32028 10.8585,10.58132 c 27.9292,27.21628 51.5332,37.77301 96.43172,43.12851 l 8.0732,0.96298 5.33545,17.5 c 2.9345,9.625 5.34843,17.64062 5.36429,17.8125 0.0387,0.42039 -0.0634,0.40397 -14.31168,-2.29966 z M 562.78264,341.4379 c -1.83202,-0.52395 -3.88738,-3.07061 -5.78227,-7.16446 -1.61695,-3.49337 -5.10634,-8.45559 -7.75421,-11.02717 -8.79034,-8.53706 -19.05311,-12.17548 -79.2605,-28.09993 -31.28912,-8.27577 -59.3957,-15.93114 -62.45904,-17.01194 -8.85386,-3.12384 -15.54763,-7.58128 -21.75833,-14.48906 -5.3846,-5.98898 -13.20639,-19.98189 -13.31722,-23.82405 -0.0269,-0.93297 -0.80276,0.0349 -1.72411,2.15086 -2.74822,6.31146 -9.23034,12.72689 -15.13926,14.98352 -10.11558,3.86319 -19.94288,2.20892 -77.77124,-13.09151 -29.0447,-7.68474 -55.13104,-14.79169 -57.96966,-15.79321 -2.83861,-1.00153 -9.1773,-1.82095 -14.08596,-1.82095 -13.65123,0 -17.08037,2.4601 -24.07217,17.26965 -0.1025,0.21706 -2.57277,-0.24794 -5.48953,-1.03335 l -5.30323,-1.428 0.81849,-10.64814 c 1.37017,-17.82551 7.83362,-28.30185 19.64412,-31.84036 8.79017,-2.6336 25.34794,0.44467 78.01648,14.50412 66.47204,17.74419 64.26609,17.21295 70.94346,17.08484 10.29608,-0.19754 19.08573,-6.40666 24.5773,-17.36172 2.40061,-4.78894 3.01523,-5.24567 6.07503,-4.51459 5.18235,1.23824 7.77921,2.86506 7.77921,4.87337 0,0.99983 1.47017,5.4903 3.26706,9.97884 4.31066,10.76785 12.27925,19.51343 22.12691,24.28444 4.66285,2.25906 29.08099,9.42657 61.52745,18.0603 72.75285,19.3589 76.71957,20.79717 88.75753,32.18217 9.57789,9.05837 15.5241,24.63918 15.56161,40.77593 0.01,4.27881 -1.1091,4.74464 -7.20792,3.0004 z M 455.36656,216.15546 c -28.56122,-3.81447 -51.905,-36.40021 -45.4255,-63.40977 4.58848,-19.12693 22.09794,-30.25948 42.18177,-26.81927 11.43434,1.95862 20.84622,6.99633 29.80077,15.95088 23.81665,23.81665 22.07023,58.96798 -3.53055,71.06134 -7.53087,3.55745 -13.85785,4.44133 -23.02649,3.21682 z M 297.63079,185.59615 c -9.85436,-2.75855 -17.78288,-7.48736 -25.51123,-15.21571 -8.12369,-8.12369 -12.5939,-15.9008 -15.37146,-26.74272 -4.85314,-18.94363 2.80189,-36.96836 18.86832,-44.427855 9.09366,-4.222091 15.36159,-4.799428 26.12004,-2.405899 27.15952,6.042414 47.4571,34.304794 43.24109,60.208944 -3.53336,21.70982 -25.19191,34.78508 -47.34676,28.58324 z"
     id="path3597"
     inkscape:connector-curvature="0" />
</svg>
